<?xml version="1.0" encoding="utf-8"?>
<svg width="180" height="30" viewBox="0 0 180 30" fill="none" xmlns="http://www.w3.org/2000/svg">
  <path d="M 7.132 26.698 L 9.976 26.698 L 9.976 17.806 L 16.096 17.806 C 21.46 17.806 25.996 14.998 25.996 9.562 C 25.996 4.522 22.252 1.498 16.564 1.498 L 7.132 1.498 L 7.132 26.698 Z M 9.976 15.214 L 9.976 4.126 L 16.348 4.126 C 20.416 4.126 23.116 5.998 23.116 9.598 C 23.116 12.982 20.38 15.214 16.204 15.214 L 9.976 15.214 Z M 42.879 27.13 C 50.547 27.13 55.767 21.046 55.767 14.098 C 55.767 7.078 50.619 1.066 42.951 1.066 C 35.283 1.066 30.063 7.15 30.063 14.098 C 30.063 21.118 35.211 27.13 42.879 27.13 Z M 42.951 24.502 C 37.191 24.502 33.015 19.822 33.015 14.098 C 33.015 8.302 37.119 3.694 42.879 3.694 C 48.639 3.694 52.815 8.374 52.815 14.098 C 52.815 19.894 48.711 24.502 42.951 24.502 Z M 61.765 26.698 L 78.793 26.698 L 78.793 24.07 L 64.609 24.07 L 64.609 1.498 L 61.765 1.498 L 61.765 26.698 Z M 84.054 26.698 L 102.45 26.698 L 102.45 24.106 L 86.898 24.106 L 86.898 15.286 L 100.65 15.286 L 100.65 12.694 L 86.898 12.694 L 86.898 4.09 L 102.27 4.09 L 102.27 1.498 L 84.054 1.498 L 84.054 26.698 Z M 116.811 27.058 C 121.815 27.058 125.415 24.25 125.415 19.93 C 125.415 16.006 122.823 13.954 117.207 12.73 C 111.663 11.542 110.367 10.21 110.367 7.834 C 110.367 5.494 112.455 3.694 115.731 3.694 C 118.323 3.694 120.663 4.522 123.003 6.43 L 124.659 4.234 C 122.103 2.182 119.475 1.138 115.803 1.138 C 111.015 1.138 107.523 4.054 107.523 8.014 C 107.523 12.226 110.187 14.098 115.983 15.358 C 121.275 16.474 122.535 17.806 122.535 20.146 C 122.535 22.702 120.303 24.502 116.919 24.502 C 113.427 24.502 110.907 23.314 108.279 20.938 L 106.515 23.026 C 109.539 25.726 112.815 27.058 116.811 27.058 Z M 137.993 26.698 L 140.873 26.698 L 140.873 16.69 L 151.349 1.498 L 148.037 1.498 L 139.469 14.098 L 130.973 1.498 L 127.517 1.498 L 137.993 16.726 L 137.993 26.698 Z M 155.878 26.698 L 174.274 26.698 L 174.274 24.106 L 158.722 24.106 L 158.722 15.286 L 172.474 15.286 L 172.474 12.694 L 158.722 12.694 L 158.722 4.09 L 174.094 4.09 L 174.094 1.498 L 155.878 1.498 L 155.878 26.698 Z" fill="white"/>
  <circle r="4" transform="matrix(-1, 0, 0, 1, 0, 0)" cx="-42.758" cy="13.941" style="fill: rgba(255, 243, 107, 0.63);"/>
</svg>