<svg width="292" height="132" viewBox="0 0 292 132" fill="none" xmlns="http://www.w3.org/2000/svg">
<path d="M63.1324 76.9778H65.9764V68.0858H72.0964C77.4604 68.0858 81.9964 65.2778 81.9964 59.8418C81.9964 54.8018 78.2524 51.7778 72.5644 51.7778H63.1324V76.9778ZM65.9764 65.4938V54.4058H72.3484C76.4164 54.4058 79.1164 56.2778 79.1164 59.8778C79.1164 63.2618 76.3804 65.4938 72.2044 65.4938H65.9764ZM98.8792 77.4098C106.547 77.4098 111.767 71.3258 111.767 64.3778C111.767 57.3578 106.619 51.3458 98.9512 51.3458C91.2832 51.3458 86.0632 57.4298 86.0632 64.3778C86.0632 71.3978 91.2112 77.4098 98.8792 77.4098ZM98.9512 74.7818C93.1912 74.7818 89.0152 70.1018 89.0152 64.3778C89.0152 58.5818 93.1192 53.9738 98.8792 53.9738C104.639 53.9738 108.815 58.6538 108.815 64.3778C108.815 70.1738 104.711 74.7818 98.9512 74.7818ZM117.765 76.9778H134.793V74.3498H120.609V51.7778H117.765V76.9778ZM140.054 76.9778H158.45V74.3858H142.898V65.5658H156.65V62.9738H142.898V54.3698H158.27V51.7778H140.054V76.9778ZM172.811 77.3378C177.815 77.3378 181.415 74.5298 181.415 70.2098C181.415 66.2858 178.823 64.2338 173.207 63.0098C167.663 61.8218 166.367 60.4898 166.367 58.1138C166.367 55.7738 168.455 53.9738 171.731 53.9738C174.323 53.9738 176.663 54.8018 179.003 56.7098L180.659 54.5138C178.103 52.4618 175.475 51.4178 171.803 51.4178C167.015 51.4178 163.523 54.3338 163.523 58.2938C163.523 62.5058 166.187 64.3778 171.983 65.6378C177.275 66.7538 178.535 68.0858 178.535 70.4258C178.535 72.9818 176.303 74.7818 172.919 74.7818C169.427 74.7818 166.907 73.5938 164.279 71.2178L162.515 73.3058C165.539 76.0058 168.815 77.3378 172.811 77.3378ZM193.993 76.9778H196.873V66.9698L207.349 51.7778H204.037L195.469 64.3778L186.973 51.7778H183.517L193.993 67.0058V76.9778ZM211.878 76.9778H230.274V74.3858H214.722V65.5658H228.474V62.9738H214.722V54.3698H230.094V51.7778H211.878V76.9778Z" fill="white"/>
<circle cx="99" cy="64" r="4" fill="#55E4D4"/>
</svg>
